<?xml version="1.0" encoding="utf-8"?>
<!-- Generator: Adobe Illustrator 24.0.1, SVG Export Plug-In . SVG Version: 6.00 Build 0)  -->
<svg version="1.1" id="Capa_1" xmlns="http://www.w3.org/2000/svg" xmlns:xlink="http://www.w3.org/1999/xlink" x="0px" y="0px"
	 viewBox="0 0 2719.89 565.56" style="enable-background:new 0 0 2719.89 565.56;" xml:space="preserve">
<style type="text/css">
	.st0{fill:#474747;}
	.st1{fill:#404040;}
	.st2{fill:#686868;}
	.st3{fill:#4C4747;}
	.st4{fill:#035096;}
	.st5{fill:#1980C5;}
</style>
<g>
	<path class="st3" d="M696.5,328.79c0,13.82-4.24,24.12-12.72,30.91c-8.48,6.78-21.36,10.18-38.63,10.18H611.6V224.39h29.3
		c13.51,0,24.06,3.33,31.66,9.99c7.6,6.66,11.4,15.8,11.4,27.42c0,8.1-1.84,14.79-5.51,20.07c-3.67,5.28-8.84,8.64-15.5,10.08
		c10.05,1.26,18.15,5.31,24.31,12.16C693.42,310.95,696.5,319.18,696.5,328.79z M667.76,263.12c0-8.23-2.23-14.26-6.69-18.09
		c-4.46-3.83-11.43-5.75-20.92-5.75h-12.34v47.58h9.8c10.05,0,17.59-1.96,22.61-5.89C665.25,277.05,667.76,271.09,667.76,263.12z
		 M680.29,328.79c0-8.92-3.24-15.78-9.71-20.59c-6.47-4.81-15.8-7.21-27.99-7.21h-14.79v53.99h17.9c12.25,0,21.07-2.12,26.48-6.36
		C677.59,344.39,680.29,337.78,680.29,328.79z"/>
	<path class="st3" d="M737.4,369.87h-16.21V224.39h16.21V369.87z"/>
	<path class="st3" d="M911.62,297.13c0,21.3-7.35,39.23-22.05,53.8c-14.7,14.57-32.76,21.86-54.18,21.86
		c-21.48,0-39.56-7.3-54.23-21.91c-14.67-14.6-22-32.52-22-53.76c0-21.55,7.27-39.54,21.81-53.99
		c14.54-14.45,32.68-21.67,54.42-21.67c21.67,0,39.79,7.22,54.37,21.67C904.33,257.59,911.62,275.59,911.62,297.13z M895.41,297.13
		c0-17.02-5.75-31.35-17.24-42.97c-11.5-11.62-25.76-17.43-42.78-17.43c-18.03,0-32.54,5.91-43.53,17.71
		c-10.99,11.81-16.49,26.04-16.49,42.69c0,17.02,5.72,31.35,17.15,42.97c11.43,11.62,25.72,17.43,42.87,17.43
		c16.96,0,31.2-5.83,42.73-17.48C889.65,328.4,895.41,314.09,895.41,297.13z"/>
	<path class="st3" d="M996.52,238.99h-34.39v130.88h-16.21V238.99h-34.3v-14.6h84.9V238.99z"/>
	<path class="st3" d="M1088.2,369.87h-73.69V224.39h73.69v15.26h-57.48v44.19h57.48v15.17h-57.48v55.59h57.48V369.87z"/>
	<path class="st3" d="M1227.75,360.45c-5.34,3.46-12.53,6.38-21.58,8.76s-17.28,3.58-24.69,3.58c-22.3,0-40.77-7.15-55.41-21.44
		c-14.64-14.29-21.96-32.43-21.96-54.42c0-21.36,7.44-39.28,22.33-53.76c14.89-14.48,33.29-21.72,55.22-21.72
		c9.11,0,17.68,1.12,25.72,3.35c8.04,2.23,14.82,5.36,20.35,9.38v18.19c-5.97-4.84-12.89-8.65-20.78-11.45
		c-7.88-2.79-15.66-4.19-23.32-4.19c-17.97,0-33.01,5.73-45.13,17.2c-12.12,11.46-18.19,25.8-18.19,43.01
		c0,17.34,5.83,31.77,17.48,43.3c11.65,11.53,26.08,17.29,43.3,17.29c8.48,0,16.91-1.4,25.3-4.19c8.39-2.79,15.5-6.61,21.34-11.45
		V360.45z"/>
	<path class="st3" d="M1358.26,369.87h-16.3V299.2h-75.19v70.67h-16.21V224.39h16.21v59.65h75.19v-59.65h16.3V369.87z"/>
	<path class="st3" d="M1518.16,373.93l-112.7-114.67v110.62h-16.21V220.34l112.7,114.39V224.39h16.21V373.93z"/>
	<path class="st3" d="M1693.61,297.13c0,21.3-7.35,39.23-22.05,53.8c-14.7,14.57-32.76,21.86-54.18,21.86
		c-21.48,0-39.56-7.3-54.23-21.91c-14.67-14.6-22-32.52-22-53.76c0-21.55,7.27-39.54,21.81-53.99
		c14.54-14.45,32.68-21.67,54.42-21.67c21.67,0,39.79,7.22,54.37,21.67C1686.33,257.59,1693.61,275.59,1693.61,297.13z
		 M1677.41,297.13c0-17.02-5.75-31.35-17.24-42.97c-11.5-11.62-25.76-17.43-42.78-17.43c-18.03,0-32.54,5.91-43.53,17.71
		c-10.99,11.81-16.49,26.04-16.49,42.69c0,17.02,5.72,31.35,17.15,42.97c11.43,11.62,25.72,17.43,42.87,17.43
		c16.96,0,31.2-5.83,42.73-17.48C1671.64,328.4,1677.41,314.09,1677.41,297.13z"/>
	<path class="st3" d="M1770.5,369.87h-54.93V224.39h16.21v130.6h38.73V369.87z"/>
	<path class="st3" d="M1921.93,297.13c0,21.3-7.35,39.23-22.05,53.8c-14.7,14.57-32.76,21.86-54.18,21.86
		c-21.48,0-39.56-7.3-54.23-21.91c-14.67-14.6-22-32.52-22-53.76c0-21.55,7.27-39.54,21.81-53.99
		c14.54-14.45,32.68-21.67,54.42-21.67c21.67,0,39.79,7.22,54.37,21.67C1914.64,257.59,1921.93,275.59,1921.93,297.13z
		 M1905.72,297.13c0-17.02-5.75-31.35-17.24-42.97c-11.5-11.62-25.76-17.43-42.78-17.43c-18.03,0-32.54,5.91-43.53,17.71
		c-10.99,11.81-16.49,26.04-16.49,42.69c0,17.02,5.72,31.35,17.15,42.97c11.43,11.62,25.72,17.43,42.87,17.43
		c16.96,0,31.2-5.83,42.73-17.48C1899.95,328.4,1905.72,314.09,1905.72,297.13z"/>
	<path class="st3" d="M2080.13,296.19c0,23.31-6.33,41.9-18.99,55.78c-12.66,13.88-29.89,20.82-51.68,20.82
		c-21.23,0-38.82-7.15-52.77-21.44c-13.95-14.29-20.92-32.37-20.92-54.23c0-21.61,6.94-39.62,20.82-54.04
		c13.88-14.42,31.25-21.63,52.11-21.63c13.38,0,25.17,2.5,35.38,7.49c10.21,4.99,18.67,12.39,25.39,22.19l-12.16,9.71
		c-5.21-7.79-11.94-13.76-20.16-17.9c-8.23-4.15-17.46-6.22-27.7-6.22c-16.65,0-30.39,5.79-41.22,17.38
		c-10.84,11.59-16.25,26.24-16.25,43.96c0,16.77,5.51,30.88,16.54,42.31c11.02,11.43,24.67,17.15,40.94,17.15
		c14.38,0,26.54-4.4,36.47-13.19c9.92-8.79,15.39-19.85,16.4-33.17h-45.51v-14.98H2080.13z"/>
	<path class="st3" d="M2185.67,224.39l-45.61,78.68v66.81h-16.21v-66.81l-46.45-78.68h18.09l36.65,64.07l35.52-64.07H2185.67z"/>
	<path class="st3" d="M2343.31,331.05c0,12.94-4.02,23.13-12.06,30.58c-8.04,7.44-19.03,11.17-32.98,11.17
		c-9.61,0-18.01-2.2-25.21-6.6c-7.19-4.4-12.42-10.49-15.69-18.28l11.59-9.89c2.2,6.09,5.98,10.87,11.35,14.32
		c5.37,3.46,11.57,5.18,18.61,5.18c8.79,0,15.69-2.26,20.68-6.78c4.99-4.52,7.49-10.9,7.49-19.13c0-6.66-2.31-12.45-6.93-17.38
		c-4.62-4.93-12.36-10.07-23.23-15.41c-12.88-6.34-21.85-12.53-26.9-18.56c-5.06-6.03-7.59-13.66-7.59-22.9
		c0-10.74,3.64-19.41,10.93-26.01c7.29-6.6,16.93-9.89,28.93-9.89c7.29,0,13.69,1.43,19.22,4.29c5.53,2.86,10.21,7.15,14.04,12.86
		l-11.02,10.27c-2.14-3.83-5.23-6.82-9.28-8.95c-4.05-2.13-8.62-3.2-13.71-3.2c-7.1,0-12.69,1.79-16.77,5.37
		c-4.08,3.58-6.13,8.42-6.13,14.51c0,5.53,1.55,10.18,4.66,13.95c3.11,3.77,9.25,8.14,18.42,13.1l0.85,0.38
		C2329.74,298.61,2343.31,314.28,2343.31,331.05z"/>
	<path class="st3" d="M2482.48,369.87h-17.9l-18.94-44h-60.4l-18.75,44h-17.9l67-149.54L2482.48,369.87z M2439.7,312.02
		l-24.12-56.16l-24.12,56.16H2439.7z"/>
	<path class="st3" d="M2606.2,360.45c-5.34,3.46-12.53,6.38-21.58,8.76s-17.28,3.58-24.69,3.58c-22.3,0-40.77-7.15-55.41-21.44
		c-14.64-14.29-21.96-32.43-21.96-54.42c0-21.36,7.44-39.28,22.33-53.76c14.89-14.48,33.29-21.72,55.22-21.72
		c9.11,0,17.68,1.12,25.72,3.35c8.04,2.23,14.82,5.36,20.35,9.38v18.19c-5.97-4.84-12.89-8.65-20.78-11.45
		c-7.88-2.79-15.66-4.19-23.32-4.19c-17.97,0-33.01,5.73-45.13,17.2c-12.12,11.46-18.19,25.8-18.19,43.01
		c0,17.34,5.83,31.77,17.48,43.3c11.65,11.53,26.08,17.29,43.3,17.29c8.48,0,16.91-1.4,25.3-4.19c8.39-2.79,15.5-6.61,21.34-11.45
		V360.45z"/>
</g>
<g>
	<g>
		<g>
			<path class="st4" d="M388.02,370.27c-8.1,0.44-15.6,3.11-21.92,7.39c-10.88,7.39-24.09,10.56-37.24,10.56h-44.13
				c-38.34,0-64.12-22.88-64.12-61.86s25.78-61.86,64.12-61.86h44.03c13.17,0,26.39,3.19,37.26,10.61
				c9.08,6.19,20.62,9.03,32.87,6.71c17.05-3.23,30.83-16.91,34.14-33.94c5.4-27.83-15.76-52.18-42.62-52.18
				c-8.66,0-16.72,2.55-23.49,6.92c-10.32,6.68-21.99,10.99-34.28,10.99h-50.48c-74.75,0-125.98,43.5-125.98,112.77
				s51.23,112.77,125.98,112.77h50.33c12.33,0,24.03,4.34,34.37,11.05c6.78,4.4,14.87,6.97,23.56,6.97
				c24.22,0,43.82-19.81,43.46-44.12C433.51,388.81,412.2,368.95,388.02,370.27z"/>
		</g>
		<g>
			<path class="st5" d="M409.37,126.43h-46.71c-13.15,0-26.36-3.17-37.24-10.56c-6.32-4.29-13.82-6.95-21.92-7.39
				c-24.17-1.31-45.49,18.54-45.84,42.75c-0.36,24.3,19.24,44.12,43.46,44.12c8.69,0,16.78-2.56,23.56-6.97
				c10.34-6.71,22.04-11.05,34.37-11.05h47.75c38.34,0,64.12,22.88,64.12,61.86s-25.78,61.86-64.12,61.86h-44.03
				c-13.17,0-26.39-3.19-37.26-10.61c-9.08-6.19-20.62-9.03-32.87-6.71c-17.05,3.23-30.83,16.91-34.14,33.94
				c-5.4,27.83,15.76,52.18,42.62,52.18c8.66,0,16.72-2.55,23.49-6.92c10.32-6.68,21.99-10.99,34.28-10.99h50.48
				c74.75,0,125.98-43.5,125.98-112.77S484.12,126.43,409.37,126.43z"/>
		</g>
	</g>
</g>
</svg>
