<?xml version="1.0" encoding="utf-8"?>
<!-- Generator: Adobe Illustrator 19.2.1, SVG Export Plug-In . SVG Version: 6.00 Build 0)  -->
<svg version="1.1" id="レイヤー_1" xmlns="http://www.w3.org/2000/svg" xmlns:xlink="http://www.w3.org/1999/xlink" x="0px"
	 y="0px" viewBox="0 0 166.3 23" style="enable-background:new 0 0 166.3 23;" xml:space="preserve">
<style type="text/css">
	.st0{fill:#D71718;}
	.st1{fill:#221714;}
</style>
<g>
	<path class="st0" d="M14.2,18.3c2.8-0.5,5-2.7,5.5-5.5h-5.5V18.3z"/>
	<path class="st0" d="M6.1,10.3h5.5V4.8C8.8,5.3,6.6,7.5,6.1,10.3"/>
	<path class="st0" d="M1.9,22.5h22v-22h-22V22.5z M12.9,20.7c-5.1,0-9.2-4.1-9.2-9.2c0-5.1,4.1-9.2,9.2-9.2c5.1,0,9.2,4.1,9.2,9.2
		C22.1,16.6,18,20.7,12.9,20.7"/>
	<path class="st0" d="M11.6,18.3v-5.5H6.1C6.6,15.6,8.8,17.8,11.6,18.3"/>
	<path class="st0" d="M14.2,4.8v5.5h5.5C19.1,7.5,16.9,5.3,14.2,4.8"/>
	<path class="st1" d="M39.6,10.1c3.4,0.1,6.5,1,6.5,4.1c0,3.3-3.9,4.9-8.4,4.9c-2.9,0-6.9-1.3-9.2-3l2.1-2.5
		c1.4,1.1,4.3,2.4,7.1,2.4c2.9,0,4.5-0.6,4.5-1.6c0-0.8-0.8-1.1-2.9-1.2c-0.5,0-3.6,0-3.7,0l-0.5,0c-4.1-0.2-5.9-1.8-5.9-4.3
		c0-2,2-4.6,8.2-4.6c3.1,0,7,1.4,9,3l-2.1,2.5c-1.4-1.2-3.8-2.4-6.9-2.4c-2.6,0-4.3,0.4-4.5,1.4c-0.2,0.9,0.6,1.3,3.5,1.4
		c0.5,0,2.7,0,2.8,0C39.2,10.1,39.5,10.1,39.6,10.1"/>
	<polygon class="st1" points="88.3,4.7 82.9,13.2 77.4,4.7 73.9,4.7 73.9,18.3 77.4,18.3 77.4,10.5 82.9,18.9 88.2,10.4 88.2,18.3 
		91.7,18.3 91.7,4.7 	"/>
	<polygon class="st1" points="146.6,8 146.6,4.7 132.4,4.7 132.4,7.7 141.5,7.7 131.8,15.1 131.8,18.3 147.7,18.3 147.7,15.4 
		136.8,15.4 	"/>
	<path class="st1" d="M156.6,19.1c-6.4,0-7.8-2.5-7.8-5.7c0-1.4,0-8.6,0-8.6h3.4c0,0,0,6.9,0,7.7c0,2.1,0.6,3.7,4.4,3.7
		c3.9,0,4.4-1.6,4.4-3.7c0-0.8,0-7.7,0-7.7h3.4c0,0,0,7.2,0,8.6C164.4,16.6,162.9,19.1,156.6,19.1"/>
	<path class="st1" d="M127.3,5.9c-0.9-0.7-2.1-1.2-4.7-1.2h-8.9l0,13.6H126c1.6,0,2.7-0.7,3.3-1.2c0.8-0.8,1.6-2.4,1.2-4.9
		C130.1,9.8,129.1,7.4,127.3,5.9 M126.6,14.3c-0.1,0.3-0.5,1.1-1.9,1.1h-7.7V7.7h4.7c1.5,0,2.5,0.2,3.4,1
		C126.6,10.2,127,13.2,126.6,14.3"/>
	<polygon class="st1" points="61.9,11.1 51.8,11.1 51.8,4.7 48.3,4.7 48.3,18.3 51.7,18.3 51.7,14.1 61.9,14.1 61.9,18.3 65.3,18.3 
		65.3,4.7 61.9,4.7 	"/>
	<rect x="68" y="4.7" class="st1" width="3.4" height="13.6"/>
	<path class="st1" d="M104.6,4.7h-3.5l-8,13.6h4.2l1-1.8l0.1-0.1h9l0.1,0.1l1,1.8h4.2L104.6,4.7z M99.9,13.5l2.9-5.4l2.9,5.4H99.9z"
		/>
</g>
</svg>
